HIERARCHY
ROOT joint_Root
{
	OFFSET 0.0 0.0 0.0
	CHANNELS 6 Xposition Yposition Zposition Zrotation Xrotation Yrotation 
	JOINT Hips
	{
		OFFSET 4.5925 91.4895 -427.239
		CHANNELS 6 Xposition Yposition Zposition Zrotation Xrotation Yrotation 
		JOINT Spine
		{
			OFFSET 15.7357 0.0 0.0
			CHANNELS 6 Xposition Yposition Zposition Zrotation Xrotation Yrotation 
			JOINT Chest
			{
				OFFSET 8.98455 -0.406207 0.0
				CHANNELS 6 Xposition Yposition Zposition Zrotation Xrotation Yrotation 
				JOINT Neck
				{
					OFFSET 16.3773 0.0 0.0
					CHANNELS 6 Xposition Yposition Zposition Zrotation Xrotation Yrotation 
					JOINT Head
					{
						OFFSET 6.45672 0.0 0.0
						CHANNELS 6 Xposition Yposition Zposition Zrotation Xrotation Yrotation 
						End Site
						{
							OFFSET 0.0 0.0 0.0
						}
					}
				}
				JOINT Shoulder_L
				{
					OFFSET 12.9942 -0.242716 4.98039
					CHANNELS 6 Xposition Yposition Zposition Zrotation Xrotation Yrotation 
					JOINT UpperArm_L
					{
						OFFSET 5.34809 0.0 0.0
						CHANNELS 6 Xposition Yposition Zposition Zrotation Xrotation Yrotation 
						JOINT LowerArm_L
						{
							OFFSET 24.3286 1.87007e-05 0.0
							CHANNELS 6 Xposition Yposition Zposition Zrotation Xrotation Yrotation 
							JOINT Hand_L
							{
								OFFSET 22.2916 0.0 0.0
								CHANNELS 6 Xposition Yposition Zposition Zrotation Xrotation Yrotation 
								End Site
								{
									OFFSET 0.0 0.0 0.0
								}
							}
						}
					}
				}
				JOINT Shoulder_R
				{
					OFFSET 12.9945 -0.242716 -4.98039
					CHANNELS 6 Xposition Yposition Zposition Zrotation Xrotation Yrotation 
					JOINT UpperArm_R
					{
						OFFSET -5.34813 0.0 0.0
						CHANNELS 6 Xposition Yposition Zposition Zrotation Xrotation Yrotation 
						JOINT LowerArm_R
						{
							OFFSET -24.3289 0.000322201 0.0
							CHANNELS 6 Xposition Yposition Zposition Zrotation Xrotation Yrotation 
							JOINT Hand_R
							{
								OFFSET -22.2915 -0.000108084 0.0
								CHANNELS 6 Xposition Yposition Zposition Zrotation Xrotation Yrotation 
								End Site
								{
									OFFSET 0.0 0.0 0.0
								}
							}
						}
					}
				}
			}
		}
		JOINT UpperLeg_L
		{
			OFFSET -2.19248 -6.46944 0.0
			CHANNELS 6 Xposition Yposition Zposition Zrotation Xrotation Yrotation 
			JOINT LowerLeg_L
			{
				OFFSET 39.0811 0.0 -1.23785e-05
				CHANNELS 6 Xposition Yposition Zposition Zrotation Xrotation Yrotation 
				JOINT Foot_L
				{
					OFFSET 40.9854 0.0 -1.26872e-05
					CHANNELS 6 Xposition Yposition Zposition Zrotation Xrotation Yrotation 
					JOINT Toes_L
					{
						OFFSET 11.7543 0.0 0.0
						CHANNELS 6 Xposition Yposition Zposition Zrotation Xrotation Yrotation 
						End Site
						{
							OFFSET 0.0 0.0 0.0
						}
					}
				}
			}
		}
		JOINT UpperLeg_R
		{
			OFFSET -2.19251 6.46944 0.0
			CHANNELS 6 Xposition Yposition Zposition Zrotation Xrotation Yrotation 
			JOINT LowerLeg_R
			{
				OFFSET -39.0811 -0.00228153 -0.0401928
				CHANNELS 6 Xposition Yposition Zposition Zrotation Xrotation Yrotation 
				JOINT Foot_R
				{
					OFFSET -40.9854 0.0 0.0
					CHANNELS 6 Xposition Yposition Zposition Zrotation Xrotation Yrotation 
					JOINT Toes_R
					{
						OFFSET -11.7543 0.0 0.0
						CHANNELS 6 Xposition Yposition Zposition Zrotation Xrotation Yrotation 
						End Site
						{
							OFFSET 0.0 0.0 0.0
						}
					}
				}
			}
		}
	}
}
MOTION
Frames:	9
Frame Time:	0.0333333
0.000000 0.000000 0.000000 0.000000 0.000000 -0.000000 1.623390 85.389700 -0.743778 89.086900 -9.521930 9.204180 15.735700 0.000005 -0.000001 99.764400 80.908600 -99.650900 8.984550 -0.406207 -0.000000 10.161100 3.066140 -0.045942 16.377300 -0.000001 -0.000001 -0.910758 -1.762870 1.787830 6.456720 -0.000001 -0.000000 -3.672790 -3.187160 2.699530 12.994200 -0.242716 4.980390 -91.911000 5.914660 -72.057900 5.348090 -0.000007 -0.000001 -65.892300 24.865600 -11.917700 24.328600 0.000019 0.000005 6.415380 15.476100 -22.866200 22.291600 -0.000001 0.000005 2.502160 4.894020 9.527870 12.994500 -0.242716 -4.980390 88.622500 10.220500 -82.281800 -5.348130 -0.000001 -0.000004 -58.321200 32.619400 -17.699700 -24.328900 0.000322 -0.000009 -0.689186 -1.464830 -25.152300 -22.291500 -0.000108 -0.000004 18.269300 5.455300 -4.832030 -2.192480 -6.469440 -0.000000 -173.946000 -18.981400 -10.634500 39.081100 -0.000007 -0.000012 -0.387868 0.296723 52.584600 40.985400 -0.000006 -0.000013 1.743570 4.127440 -82.001700 11.754300 -0.000000 0.000003 -0.000239 -0.002148 -16.658200 -2.192510 6.469440 -0.000001 176.634000 8.433950 166.818000 -39.081100 -0.002282 -0.040193 0.052469 -0.036860 53.178800 -40.985400 0.000008 0.000006 5.484540 5.683710 -80.311500 -11.754300 -0.000006 -0.000006 -1.002840 -1.245020 -16.845600
0.000000 0.000000 0.000000 0.000000 0.000000 -0.000000 2.435900 86.579400 0.075590 89.608200 -13.413500 9.428530 15.735700 0.000005 -0.000001 97.506900 81.612800 -96.986000 8.984550 -0.406207 -0.000000 8.859620 2.185290 0.871805 16.377300 -0.000001 -0.000001 1.457210 -1.939070 1.620360 6.456720 -0.000001 -0.000000 -0.283452 -2.699800 1.828140 12.994200 -0.242716 4.980390 -91.476200 4.386160 -71.376200 5.348090 -0.000007 -0.000001 -63.784900 23.693100 -15.389100 24.328600 0.000019 0.000005 13.153300 29.648200 -25.284300 22.291600 -0.000001 0.000005 -11.467500 5.121210 4.605110 12.994500 -0.242716 -4.980390 88.508500 9.782360 -81.287200 -5.348130 -0.000001 -0.000004 -61.382300 30.351000 -16.977300 -24.328900 0.000322 -0.000009 -0.195095 -0.425856 -24.490500 -22.291500 -0.000108 -0.000004 18.448300 5.412990 -3.364970 -2.192480 -6.469440 -0.000000 -174.941000 -20.233900 -7.198780 39.081100 -0.000007 -0.000012 -0.379537 0.342488 47.938300 40.985400 -0.000006 -0.000013 0.936858 1.509680 -80.644100 11.754300 -0.000000 0.000003 -0.000239 -0.002154 -16.658400 -2.192510 6.469440 -0.000001 175.567000 6.368810 168.731000 -39.081100 -0.002282 -0.040193 0.033889 -0.026270 49.390400 -40.985400 0.000008 0.000006 5.359640 7.958840 -78.336000 -11.754300 -0.000006 -0.000006 -0.972134 -1.199640 -17.138300
0.000000 0.000000 0.000000 0.000000 0.000000 -0.000000 3.022760 88.052700 0.702926 89.693900 -15.949400 8.707650 15.735700 0.000005 -0.000001 93.865400 82.747600 -92.767200 8.984550 -0.406207 -0.000000 6.698260 0.964476 2.137640 16.377300 -0.000001 -0.000001 5.161960 -2.490020 1.258390 6.456720 -0.000001 -0.000000 2.597360 -3.158470 0.945677 12.994200 -0.242716 4.980390 -91.200400 3.344840 -70.244400 5.348090 -0.000007 -0.000001 -56.282400 19.125800 -23.423800 24.328600 0.000019 0.000005 12.774900 23.862800 -29.280400 22.291600 -0.000001 0.000005 -4.319450 5.061550 5.937340 12.994500 -0.242716 -4.980390 88.369600 9.089150 -79.784800 -5.348130 -0.000001 -0.000004 -64.045600 29.337500 -14.523700 -24.328900 0.000322 -0.000009 -0.615062 -1.275280 -25.700500 -22.291500 -0.000108 -0.000004 17.742100 5.412360 -3.348620 -2.192480 -6.469440 -0.000000 -176.024000 -20.217700 -4.573950 39.081100 -0.000007 -0.000012 -0.328436 0.364437 42.026400 40.985400 -0.000006 -0.000013 0.233093 -1.016300 -78.332800 11.754300 -0.000000 0.000003 -0.000241 -0.002165 -16.658800 -2.192510 6.469440 -0.000001 175.022000 5.994310 170.439000 -39.081100 -0.002282 -0.040193 0.022078 -0.019318 44.239700 -40.985400 0.000008 0.000006 5.233610 10.228000 -75.416400 -11.754300 -0.000006 -0.000006 -0.819152 -1.000060 -17.730000
0.000000 0.000000 0.000000 0.000000 0.000000 -0.000000 3.377000 89.216500 1.109760 89.644200 -17.805800 8.172670 15.735700 0.000005 -0.000001 90.581300 83.662000 -88.981900 8.984550 -0.406207 -0.000000 4.910010 0.088537 3.191300 16.377300 -0.000001 -0.000001 8.708240 -3.615400 1.594370 6.456720 -0.000001 -0.000000 5.045940 -4.290780 0.298635 12.994200 -0.242716 4.980390 -90.872500 2.453900 -70.422200 5.348090 -0.000007 -0.000001 -50.188300 5.687090 -32.636200 24.328600 0.000019 0.000005 10.773100 15.168400 -36.042600 22.291600 -0.000001 0.000005 9.028120 5.105010 5.072630 12.994500 -0.242716 -4.980390 88.308300 8.173180 -78.263600 -5.348130 -0.000001 -0.000004 -65.499500 29.262800 -11.293400 -24.328900 0.000322 -0.000009 -1.070730 -1.953480 -28.706300 -22.291500 -0.000108 -0.000004 15.390200 5.432820 -4.039570 -2.192480 -6.469440 -0.000000 -176.396000 -20.990900 -2.160280 39.081100 -0.000007 -0.000012 -0.270131 0.360927 36.813000 40.985400 -0.000006 -0.000013 0.111117 -2.012420 -76.147800 11.754300 -0.000000 0.000003 -0.000229 -0.002071 -16.655400 -2.192510 6.469440 -0.000001 174.649000 6.725800 172.124000 -39.081100 -0.002282 -0.040193 0.014520 -0.013579 39.617500 -40.985400 0.000008 0.000006 5.237060 12.516400 -72.976600 -11.754300 -0.000006 -0.000006 -0.664065 -0.809966 -18.061800
0.000000 0.000000 0.000000 0.000000 0.000000 -0.000000 3.614700 89.812300 1.341690 89.336500 -19.212600 7.696350 15.735700 0.000005 -0.000001 85.397500 84.241900 -83.392700 8.984550 -0.406207 -0.000000 3.733990 -0.993322 4.037610 16.377300 -0.000001 -0.000001 10.773300 -4.613000 2.566550 6.456720 -0.000001 -0.000000 6.972470 -5.162060 -0.150417 12.994200 -0.242716 4.980390 -90.271600 0.818511 -71.658100 5.348090 -0.000007 -0.000001 -46.126000 -10.557500 -41.836700 24.328600 0.000019 0.000005 12.310700 11.867100 -46.703600 22.291600 -0.000001 0.000005 18.980000 5.217380 2.330010 12.994500 -0.242716 -4.980390 88.309100 7.517280 -77.284000 -5.348130 -0.000001 -0.000004 -65.058500 30.604700 -8.530200 -24.328900 0.000322 -0.000009 -1.227450 -1.928260 -32.460100 -22.291500 -0.000108 -0.000004 14.429800 5.446000 -4.497040 -2.192480 -6.469440 -0.000000 -176.298000 -21.712100 -0.839572 39.081100 -0.000007 -0.000012 -0.237778 0.353559 33.922400 40.985400 -0.000006 -0.000013 0.114745 -2.409700 -74.988500 11.754300 -0.000000 0.000003 -0.000190 -0.001773 -16.644500 -2.192510 6.469440 -0.000001 174.426000 8.452640 173.372000 -39.081100 -0.002282 -0.040193 0.008556 -0.007146 36.399100 -40.985400 0.000008 0.000006 5.544720 15.248300 -72.148600 -11.754300 -0.000006 -0.000006 -0.217538 -0.281197 -17.806700
0.000000 0.000000 0.000000 0.000000 0.000000 -0.000000 3.880220 90.022800 1.475320 88.910900 -20.679700 7.469720 15.735700 0.000005 -0.000001 78.164800 84.128400 -75.801000 8.984550 -0.406207 -0.000000 3.786210 -2.487250 4.805210 16.377300 -0.000001 -0.000001 11.158000 -4.857910 3.156780 6.456720 -0.000001 -0.000000 7.586040 -5.137040 0.150099 12.994200 -0.242716 4.980390 -89.641900 -1.163760 -72.878900 5.348090 -0.000007 -0.000001 -43.911700 -28.232600 -52.009000 24.328600 0.000019 0.000005 13.481300 9.588700 -55.205000 22.291600 -0.000001 0.000005 20.712300 5.346080 -1.238650 12.994500 -0.242716 -4.980390 88.195500 7.849890 -77.011300 -5.348130 -0.000001 -0.000004 -61.795000 32.799500 -7.968330 -24.328900 0.000322 -0.000009 -1.158270 -1.618860 -35.568200 -22.291500 -0.000108 -0.000004 15.761600 5.456580 -4.872660 -2.192480 -6.469440 -0.000000 -176.247000 -21.862200 -0.316802 39.081100 -0.000007 -0.000012 -0.222927 0.344579 32.901400 40.985400 -0.000006 -0.000013 -0.083064 -3.623840 -74.681800 11.754300 -0.000000 0.000003 -0.000218 -0.001994 -16.652600 -2.192510 6.469440 -0.000001 174.280000 9.600640 174.213000 -39.081100 -0.002282 -0.040193 -0.001134 0.006448 34.462500 -40.985400 0.000008 0.000006 5.577350 17.837600 -72.088500 -11.754300 -0.000006 -0.000006 -0.001685 -0.024706 -17.577700
0.000000 0.000000 0.000000 0.000000 0.000000 -0.000000 4.323090 90.109600 1.562520 88.482100 -23.134400 6.978540 15.735700 0.000005 -0.000001 73.471600 83.968800 -70.734300 8.984550 -0.406207 -0.000000 3.894130 -3.519260 5.589700 16.377300 -0.000001 -0.000001 11.376100 -4.287990 2.359160 6.456720 -0.000001 -0.000000 7.589100 -4.531980 1.560450 12.994200 -0.242716 4.980390 -88.645400 -4.231520 -72.239500 5.348090 -0.000007 -0.000001 -41.300500 -40.733900 -60.314500 24.328600 0.000019 0.000005 12.006500 7.685550 -57.836300 22.291600 -0.000001 0.000005 30.387800 5.391000 -2.617690 12.994500 -0.242716 -4.980390 87.902000 9.073490 -76.922400 -5.348130 -0.000001 -0.000004 -57.246500 34.030300 -8.534660 -24.328900 0.000322 -0.000009 -0.607137 -0.816616 -36.577900 -22.291500 -0.000108 -0.000004 17.189100 5.463150 -5.116820 -2.192480 -6.469440 -0.000000 -176.431000 -22.519800 -0.331795 39.081100 -0.000007 -0.000012 -0.216935 0.341561 32.421200 40.985400 -0.000006 -0.000013 -0.355426 -5.441020 -74.694900 11.754300 -0.000000 0.000003 -0.000237 -0.002133 -16.657600 -2.192510 6.469440 -0.000001 174.377000 9.212940 173.935000 -39.081100 -0.002282 -0.040193 -0.009461 0.019289 33.477000 -40.985400 0.000008 0.000006 5.348240 19.902900 -71.632300 -11.754300 -0.000006 -0.000006 -0.001674 -0.024559 -17.571700
0.000000 0.000000 0.000000 0.000000 0.000000 -0.000000 4.876720 90.212800 1.779700 88.177100 -26.834200 6.328850 15.735700 0.000005 -0.000001 72.718700 83.992600 -69.515900 8.984550 -0.406207 -0.000000 3.823710 -3.674320 6.523090 16.377300 -0.000001 -0.000001 11.836200 -2.891630 0.427415 6.456720 -0.000001 -0.000000 7.439770 -3.360500 1.652340 12.994200 -0.242716 4.980390 -87.554200 -6.736190 -69.994300 5.348090 -0.000007 -0.000001 -38.475500 -48.629900 -65.701600 24.328600 0.000019 0.000005 13.771300 9.708460 -55.480500 22.291600 -0.000001 0.000005 29.445400 5.391900 -2.652200 12.994500 -0.242716 -4.980390 87.743400 9.958930 -77.164100 -5.348130 -0.000001 -0.000004 -54.511500 32.454600 -9.106690 -24.328900 0.000322 -0.000009 0.763402 1.091490 -35.039400 -22.291500 -0.000108 -0.000004 17.728900 5.450090 -4.644930 -2.192480 -6.469440 -0.000000 -176.685000 -24.495700 -0.128235 39.081100 -0.000007 -0.000012 -0.208529 0.339644 31.548700 40.985400 -0.000006 -0.000013 -0.547314 -7.150940 -74.695700 11.754300 -0.000000 0.000003 -0.000260 -0.002311 -16.664000 -2.192510 6.469440 -0.000001 174.611000 6.934600 173.050000 -39.081100 -0.002282 -0.040193 -0.013087 0.025413 32.808700 -40.985400 0.000008 0.000006 5.203150 21.309300 -70.852500 -11.754300 -0.000006 -0.000006 -0.001551 -0.022942 -17.506000
0.000000 0.000000 0.000000 0.000000 0.000000 -0.000000 5.415080 90.266400 2.115220 88.045000 -30.052000 5.912030 15.735700 0.000005 -0.000001 73.285200 84.113700 -69.687100 8.984550 -0.406207 -0.000000 3.635380 -3.511060 7.301710 16.377300 -0.000001 -0.000001 12.592400 -1.660840 -1.040220 6.456720 -0.000001 -0.000000 7.387470 -1.855270 -0.019512 12.994200 -0.242716 4.980390 -86.835200 -7.983810 -68.293500 5.348090 -0.000007 -0.000001 -32.853800 -53.005500 -66.393000 24.328600 0.000019 0.000005 17.169800 14.035100 -51.874200 22.291600 -0.000001 0.000005 24.312300 5.343040 -1.165740 12.994500 -0.242716 -4.980390 87.723500 10.120600 -77.252800 -5.348130 -0.000001 -0.000004 -54.808400 28.241700 -8.646600 -24.328900 0.000322 -0.000009 1.906950 3.018300 -32.327800 -22.291500 -0.000108 -0.000004 18.062000 5.419470 -3.582300 -2.192480 -6.469440 -0.000000 -177.044000 -26.340200 0.222602 39.081100 -0.000007 -0.000012 -0.206073 0.346543 30.738300 40.985400 -0.000006 -0.000013 -0.638816 -8.538690 -74.760200 11.754300 -0.000000 0.000003 -0.000252 -0.002245 -16.661700 -2.192510 6.469440 -0.000001 174.614000 4.519410 172.461000 -39.081100 -0.002282 -0.040193 -0.016768 0.031839 32.219600 -40.985400 0.000008 0.000006 4.920610 22.190700 -70.413100 -11.754300 -0.000006 -0.000006 -0.001326 -0.019933 -17.383700
